<?xml version="1.0" standalone="no"?>
<!-- © 2017 Mouvement Français pour un Revenu de Base http://www.revenudebase.info -->
<!-- SPDX-License-Identifier: CC-BY-SA-4.0+ -->
<!DOCTYPE svg PUBLIC "-//W3C//DTD SVG 20010904//EN"
 "http://www.w3.org/TR/2001/REC-SVG-20010904/DTD/svg10.dtd">
<svg version="1.0" xmlns="http://www.w3.org/2000/svg"
 width="1417.000000pt" height="1622.000000pt" viewBox="0 0 1417.000000 1622.000000"
 preserveAspectRatio="xMidYMid meet">
<metadata>
Created by potrace 1.16, written by Peter Selinger 2001-2019
</metadata>
<g transform="translate(0.000000,1622.000000) scale(0.100000,-0.100000)"
fill="#000000" stroke="none">
<path d="M6750 14579 c-1110 -89 -2122 -507 -2950 -1219 -144 -123 -398 -378
-532 -533 -279 -323 -525 -696 -714 -1080 -61 -124 -72 -154 -60 -161 7 -5
132 -62 277 -126 l264 -116 101 195 c151 295 290 511 489 761 642 808 1577
1382 2579 1585 311 62 490 83 806 91 346 10 639 -16 990 -86 742 -149 1418
-475 1999 -964 l84 -71 -49 -14 c-27 -7 -1100 -294 -2384 -636 l-2335 -622 -3
-1612 c-1 -886 -1 -1611 0 -1611 2 0 149 40 328 88 l325 88 3 625 2 624 478
128 c262 70 487 131 499 134 l23 5 2 -1959 3 -1959 305 83 c168 45 315 85 327
88 l23 5 2 1187 3 1187 230 63 c127 34 238 61 247 60 9 -1 164 -173 344 -382
179 -209 340 -395 356 -413 l29 -34 362 97 c199 54 367 100 374 104 7 4 -138
175 -374 441 -212 239 -387 438 -389 442 -3 4 26 25 63 47 323 189 544 453
620 740 33 124 37 338 9 469 -75 349 -260 583 -543 685 -212 77 -491 84 -798
22 -86 -17 -1993 -526 -2177 -581 -17 -5 -18 16 -18 335 0 315 1 340 18 345
20 6 -172 -44 2437 640 1144 299 2238 586 2430 637 193 50 354 95 358 99 9 8
-61 104 -190 259 -781 940 -1874 1566 -3088 1766 -245 41 -441 56 -755 60
-173 2 -367 -1 -430 -6z m1870 -4190 c78 -36 125 -81 159 -152 97 -200 43
-410 -146 -568 -127 -106 -253 -158 -648 -264 -176 -47 -328 -88 -338 -91 -16
-5 -17 20 -15 458 l3 463 270 73 c389 106 421 112 550 109 94 -2 118 -6 165
-28z"/>
<path d="M11465 11895 c-79 -13 -358 -85 -1165 -302 l-215 -58 -3 -1608 c-2
-1460 -1 -1607 14 -1607 28 0 1504 400 1627 440 425 142 744 398 855 688 42
110 56 182 55 302 -1 234 -85 432 -240 561 -63 53 -190 114 -280 136 -40 9
-73 20 -73 24 0 4 24 21 53 38 74 42 183 136 239 205 108 134 158 277 159 448
0 362 -200 631 -536 719 -105 28 -358 35 -490 14z m201 -630 c67 -20 126 -72
154 -137 33 -73 34 -193 4 -259 -46 -99 -150 -183 -296 -239 -78 -30 -786
-225 -793 -218 -2 1 -5 154 -6 338 l-3 335 305 82 c167 46 333 89 369 97 86
19 204 20 266 1z m123 -1255 c142 -62 200 -245 128 -404 -48 -104 -163 -199
-306 -253 -49 -19 -860 -243 -878 -243 -2 0 -3 159 -3 353 l0 353 348 94 c191
52 383 102 427 112 104 23 212 18 284 -12z"/>
<path d="M4187 11281 c-197 -54 -362 -102 -366 -107 -5 -5 -180 -355 -389
-779 -209 -423 -384 -770 -389 -772 -6 -1 -688 1005 -763 1127 -8 13 -149 -21
-622 -151 l-78 -21 0 -1609 c0 -885 3 -1609 6 -1609 26 0 651 175 656 184 5 6
8 471 7 1033 0 563 3 1023 6 1023 4 1 185 -248 404 -552 219 -304 404 -554
412 -556 9 -1 152 264 424 787 225 435 410 789 411 788 1 -1 5 -468 9 -1037 3
-569 8 -1036 10 -1038 2 -2 151 36 332 85 l328 88 3 1608 2 1607 -22 -1 c-13
0 -184 -45 -381 -98z"/>
<path d="M11276 7852 c-2 -4 -25 -57 -51 -116 -107 -252 -231 -478 -400 -731
-255 -382 -558 -711 -919 -999 -1082 -865 -2512 -1178 -3866 -845 -816 200
-1559 633 -2161 1258 -82 85 -149 158 -149 162 0 11 -65 -7 1159 319 580 155
1058 283 1063 286 4 3 8 149 8 326 l0 320 -27 -6 c-87 -21 -3219 -859 -3222
-862 -6 -6 88 -159 187 -304 511 -750 1200 -1347 2007 -1736 522 -251 1043
-402 1650 -476 157 -19 229 -22 560 -22 329 0 404 3 560 22 476 58 901 164
1319 328 166 65 495 224 651 314 810 466 1474 1142 1929 1967 97 176 266 540
266 573 0 7 -145 67 -507 209 -29 11 -54 17 -57 13z"/>
<path d="M3130 3201 c-126 -39 -210 -166 -197 -299 15 -148 124 -249 268 -251
111 -2 205 54 253 151 21 42 26 66 26 128 0 92 -30 161 -92 214 -66 57 -177
81 -258 57z m175 -74 c143 -81 153 -294 18 -387 -50 -34 -143 -40 -206 -12
-156 69 -161 322 -7 400 60 30 141 30 195 -1z"/>
<path d="M9007 2953 c-148 -328 -136 -295 -98 -291 29 3 35 9 61 68 l29 65
149 3 149 3 32 -71 c28 -64 33 -70 61 -70 16 0 30 3 30 8 0 4 -54 127 -121
275 -160 353 -137 352 -292 10z m204 46 c30 -67 56 -126 57 -130 2 -5 -51 -9
-118 -9 -67 0 -120 4 -118 9 21 55 113 251 118 251 3 0 31 -55 61 -121z"/>
<path d="M10320 3201 c-147 -45 -227 -206 -181 -364 19 -65 86 -138 153 -167
29 -12 55 -24 56 -25 2 -2 -8 -21 -22 -41 l-26 -38 23 -13 c33 -19 35 -17 61
41 22 49 26 54 66 60 45 7 101 34 139 66 l24 21 -21 21 -21 21 -30 -26 c-67
-56 -186 -63 -259 -15 -121 81 -121 296 1 376 35 23 51 27 118 27 71 0 81 -3
122 -32 l45 -31 22 23 21 23 -35 27 c-62 47 -181 69 -256 46z"/>
<path d="M10807 2953 c-148 -328 -136 -295 -98 -291 29 3 35 9 61 68 l29 65
149 3 149 3 32 -71 c28 -64 33 -70 61 -70 16 0 30 3 30 8 0 4 -54 127 -121
275 -160 353 -137 352 -292 10z m206 40 l56 -128 -116 -3 c-63 -1 -117 -1
-119 1 -5 5 109 257 116 257 4 0 32 -57 63 -127z"/>
<path d="M11658 3201 c-67 -22 -108 -75 -108 -139 0 -89 38 -122 190 -163 51
-13 93 -31 107 -45 33 -33 30 -78 -7 -116 -29 -29 -33 -30 -104 -26 -61 3 -82
9 -124 35 -50 31 -51 31 -69 11 -17 -19 -17 -21 12 -44 17 -13 54 -33 83 -44
141 -53 278 3 290 118 8 89 -35 135 -157 167 -134 34 -161 53 -161 113 0 78
120 108 223 56 49 -24 52 -24 64 -8 19 26 13 36 -40 63 -52 25 -153 37 -199
22z"/>
<path d="M2280 2930 l0 -270 30 0 30 0 2 215 3 215 95 -140 c52 -77 97 -140
100 -140 3 0 48 64 100 141 l95 141 3 -216 2 -216 30 0 30 0 0 270 0 270 -32
0 c-31 0 -38 -8 -128 -145 -52 -80 -97 -145 -100 -145 -3 0 -48 65 -100 145
-90 137 -97 145 -127 145 l-33 0 0 -270z"/>
<path d="M3610 3011 c0 -246 15 -291 114 -337 119 -56 252 -17 309 90 20 37
22 58 25 239 l4 197 -30 0 -30 0 -4 -187 c-3 -213 -14 -250 -78 -285 -48 -25
-135 -24 -178 2 -61 37 -72 80 -72 288 l0 182 -30 0 -30 0 0 -189z"/>
<path d="M4163 3188 c2 -7 55 -131 117 -276 148 -346 126 -347 281 13 l117
270 -30 3 c-17 2 -32 1 -35 -1 -2 -3 -45 -103 -95 -224 -49 -120 -93 -221 -97
-225 -3 -4 -48 96 -100 223 l-94 229 -34 0 c-24 0 -34 -4 -30 -12z"/>
<path d="M4790 2930 l0 -270 195 0 195 0 0 25 0 25 -165 0 -165 0 0 95 0 95
145 0 145 0 0 30 0 30 -145 0 -145 0 0 90 0 90 145 1 c80 1 150 3 155 4 6 1
15 3 20 4 6 0 10 12 10 26 l0 25 -195 0 -195 0 0 -270z"/>
<path d="M5310 2930 l0 -270 30 0 30 0 2 213 3 212 93 -137 c51 -76 95 -138
97 -138 2 0 46 61 96 135 51 74 95 135 98 135 3 0 5 -94 4 -210 l-2 -210 35 0
34 0 0 270 0 270 -33 0 c-32 0 -38 -7 -131 -146 -54 -81 -101 -142 -106 -138
-4 5 -49 71 -99 147 -83 125 -94 137 -121 137 l-30 0 0 -270z"/>
<path d="M5980 2930 l0 -270 200 0 200 0 0 25 0 25 -170 0 -170 0 0 95 0 95
150 0 150 0 0 30 0 30 -150 0 -151 0 3 90 3 91 160 2 160 2 3 28 3 27 -195 0
-196 0 0 -270z"/>
<path d="M6500 2931 l0 -271 30 0 30 0 2 218 3 219 170 -216 c139 -176 175
-217 198 -219 l27 -3 0 270 0 271 -30 0 -30 0 -2 -213 -3 -214 -165 211 c-148
188 -169 211 -198 214 l-32 3 0 -270z"/>
<path d="M7072 3173 l3 -28 93 -3 92 -3 0 -239 0 -240 30 0 30 0 0 240 0 240
90 0 90 0 0 30 0 30 -216 0 -215 0 3 -27z"/>
<path d="M7850 2930 l0 -270 30 0 30 0 0 115 0 114 148 3 147 3 3 28 3 27
-150 0 -151 0 0 95 0 95 165 0 165 0 0 30 0 30 -195 0 -195 0 0 -270z"/>
<path d="M8360 2930 l0 -270 30 0 30 0 0 105 0 105 78 0 78 0 78 -105 c72 -97
80 -105 112 -105 19 0 34 2 34 5 0 3 -35 52 -77 107 -42 56 -72 103 -67 105
32 12 90 52 108 76 16 21 21 43 21 87 0 71 -21 105 -85 138 -40 20 -58 22
-192 22 l-148 0 0 -270z m334 181 c34 -32 42 -80 22 -120 -26 -49 -67 -64
-188 -69 l-108 -5 0 113 0 112 124 -4 c115 -3 126 -5 150 -27z"/>
<path d="M9530 2930 l0 -270 30 0 30 0 0 215 c0 118 3 215 8 215 4 0 83 -97
176 -215 135 -172 173 -215 192 -215 l24 0 0 270 0 270 -30 0 -30 0 -2 -211
-3 -212 -165 212 c-154 197 -167 211 -197 211 l-33 0 0 -270z"/>
<path d="M11340 2930 l0 -270 30 0 30 0 0 270 0 270 -30 0 -30 0 0 -270z"/>
<path d="M2263 2164 c-61 -22 -126 -85 -153 -146 -29 -65 -31 -172 -6 -231 25
-58 90 -122 148 -147 66 -28 171 -25 234 8 49 25 107 88 130 139 22 50 23 175
2 224 -22 51 -84 116 -132 141 -54 28 -165 34 -223 12z m216 -78 c26 -19 50
-47 67 -82 23 -46 26 -64 22 -123 -3 -58 -9 -78 -34 -113 -47 -67 -94 -89
-180 -86 -59 3 -78 8 -112 32 -110 76 -123 260 -25 352 45 42 81 55 154 51 54
-2 74 -8 108 -31z"/>
<path d="M11189 1914 c-63 -147 -116 -271 -118 -276 -1 -5 25 -8 60 -6 l63 3
22 55 22 55 114 3 114 3 26 -61 27 -60 60 0 c34 0 61 2 61 4 0 2 -51 124 -114
272 l-114 269 -55 3 -54 3 -114 -267z m226 -36 c6 -24 5 -24 -55 -22 -34 1
-64 5 -67 8 -3 3 4 28 16 55 11 27 26 62 32 78 l12 28 28 -61 c15 -34 31 -73
34 -86z"/>
<path d="M11816 2166 c-81 -30 -125 -108 -106 -189 14 -66 53 -95 168 -128 83
-24 112 -43 112 -74 0 -54 -102 -63 -186 -15 l-53 30 -31 -38 c-16 -20 -29
-41 -27 -47 6 -19 71 -55 126 -71 68 -20 167 -14 213 13 75 44 102 148 58 221
-19 31 -104 82 -137 82 -28 0 -122 42 -127 57 -4 9 1 26 9 39 21 32 83 32 152
0 l51 -24 26 39 c14 21 26 43 26 49 0 6 -25 23 -56 37 -69 31 -162 39 -218 19z"/>
<path d="M1590 1900 l0 -270 30 0 30 0 0 94 0 94 108 4 c91 3 114 7 150 28
123 69 116 243 -12 301 -33 15 -66 19 -173 19 l-133 0 0 -270z m311 172 c22
-25 29 -42 29 -75 0 -87 -47 -117 -185 -117 l-95 0 0 116 0 116 111 -4 111 -3
29 -33z"/>
<path d="M2760 1988 c0 -204 7 -242 53 -295 43 -49 99 -73 172 -73 73 0 129
24 172 73 46 53 53 91 53 295 l0 182 -30 0 -30 0 0 -182 c0 -159 -3 -189 -20
-225 -25 -57 -69 -83 -138 -83 -69 0 -116 22 -144 69 -21 34 -23 49 -26 229
l-4 192 -29 0 -29 0 0 -182z"/>
<path d="M3360 1901 l0 -271 30 0 30 0 0 105 0 105 78 0 77 -1 75 -104 c72
-100 76 -104 113 -104 45 -1 48 -9 -49 120 l-73 97 44 17 c25 9 56 30 69 46
57 67 37 182 -40 230 -36 22 -51 24 -196 27 l-158 4 0 -271z m310 194 c37 -19
50 -43 50 -90 0 -82 -42 -107 -192 -113 l-108 -5 0 112 0 111 110 0 c79 0 119
-4 140 -15z"/>
<path d="M4140 1997 c0 -206 12 -261 69 -318 44 -44 103 -63 181 -57 112 8
182 72 200 183 5 33 10 129 10 213 l0 152 -35 0 -35 0 0 -187 c0 -211 -7 -239
-69 -280 -47 -32 -135 -32 -181 0 -67 45 -75 70 -79 280 l-3 187 -29 0 -29 0
0 -173z"/>
<path d="M4740 1901 l0 -271 30 0 30 0 2 219 3 218 170 -218 c147 -188 174
-218 198 -218 l27 -1 0 270 0 270 -30 0 -30 0 -2 -214 -3 -213 -165 211 c-148
189 -169 211 -198 214 l-32 3 0 -270z"/>
<path d="M5575 1900 l0 -270 63 0 62 0 0 85 0 85 45 0 45 0 56 -85 57 -85 69
0 c53 0 67 3 62 13 -4 6 -31 47 -61 89 -29 43 -53 82 -53 87 0 5 9 12 19 16
33 10 79 71 86 114 15 92 -21 167 -100 202 -33 15 -66 19 -195 19 l-155 0 0
-270z m310 135 c14 -13 25 -36 25 -50 0 -14 -11 -37 -25 -50 -22 -22 -32 -25
-105 -25 l-80 0 0 75 0 75 80 0 c73 0 83 -3 105 -25z"/>
<path d="M6140 1900 l0 -270 205 0 205 0 0 50 0 50 -145 0 -145 0 0 60 0 60
126 0 125 0 -3 53 -3 52 -120 1 -120 1 -3 51 -3 51 143 3 143 3 3 53 3 52
-205 0 -206 0 0 -270z"/>
<path d="M6629 2123 c10 -27 58 -145 106 -263 48 -118 89 -221 92 -227 3 -8
25 -13 57 -13 l52 0 107 268 c59 147 107 270 107 275 0 4 -28 7 -62 7 l-63 0
-64 -174 c-35 -96 -67 -180 -71 -186 -7 -12 -30 43 -106 252 l-39 108 -67 0
-68 0 19 -47z"/>
<path d="M7240 1900 l0 -270 205 0 205 0 0 50 0 50 -145 0 -145 0 0 60 0 60
128 0 127 0 0 53 0 52 -127 3 -128 3 0 49 0 50 145 0 145 0 0 55 0 55 -205 0
-205 0 0 -270z"/>
<path d="M7760 1900 l0 -270 60 0 60 0 2 167 3 166 125 -166 125 -166 53 0 52
-1 0 270 0 270 -60 0 -60 0 -2 -160 -3 -160 -120 159 -120 160 -57 0 -58 1 0
-270z"/>
<path d="M8360 2018 c0 -184 11 -258 45 -310 69 -105 270 -120 366 -28 57 54
69 110 69 317 l0 173 -60 0 -60 0 0 -172 c0 -145 -3 -179 -18 -208 -28 -57
-100 -77 -161 -46 -47 25 -55 55 -59 249 l-4 177 -59 0 -59 0 0 -152z"/>
<path d="M9190 1900 l0 -270 140 0 c174 0 227 16 293 90 50 55 67 103 67 186
0 77 -33 148 -91 197 -62 53 -118 67 -276 67 l-133 0 0 -270z m301 138 c45
-25 79 -85 79 -139 0 -19 -10 -55 -22 -79 -31 -60 -73 -80 -165 -80 l-73 0 0
160 0 160 71 0 c55 0 80 -5 110 -22z"/>
<path d="M9800 1900 l0 -270 205 0 205 0 0 50 0 50 -145 0 -145 0 0 60 0 60
131 0 130 0 -3 53 -3 52 -127 3 -128 3 0 49 0 50 145 0 145 0 0 55 0 55 -205
0 -205 0 0 -270z"/>
<path d="M10550 1900 l0 -270 164 0 c95 0 177 5 197 11 120 40 143 200 37 255
l-29 15 31 30 c39 39 44 103 14 162 -28 53 -78 67 -256 67 l-158 0 0 -270z
m302 140 c23 -28 22 -32 -1 -61 -17 -21 -30 -24 -100 -27 l-81 -4 0 62 0 63
82 -5 c69 -4 84 -8 100 -28z m20 -202 c27 -21 30 -53 9 -79 -17 -22 -28 -24
-115 -27 l-96 -4 0 61 0 61 93 0 c59 0 99 -5 109 -12z"/>
<path d="M12220 1900 l0 -270 205 0 205 0 0 50 0 50 -145 0 -145 0 0 60 0 60
126 0 125 0 -3 53 -3 52 -120 1 -120 1 -3 51 -3 51 143 3 143 3 3 53 3 52
-205 0 -206 0 0 -270z"/>
</g>
</svg>
